<svg width="50" height="50" viewBox="0 0 50 50" fill="none" xmlns="http://www.w3.org/2000/svg">
<circle cx="25" cy="25" r="25" fill="#162A41"/>
<g clip-path="url(#clip0_179_288)">
<path d="M21.75 30.6121V35.2501C21.75 35.5741 21.958 35.8611 22.266 35.9631C22.343 35.9881 22.422 36.0001 22.5 36.0001C22.734 36.0001 22.96 35.8901 23.104 35.6941L25.817 32.0021L21.75 30.6121Z" fill="white"/>
<path d="M36.6851 13.139C36.4551 12.976 36.1531 12.954 35.9031 13.085L13.403 24.835C13.137 24.974 12.98 25.258 13.002 25.557C13.025 25.857 13.224 26.113 13.507 26.21L19.762 28.348L33.0831 16.958L22.775 29.377L33.2581 32.96C33.3361 32.986 33.4181 33 33.5001 33C33.6361 33 33.7711 32.963 33.8901 32.891C34.0801 32.775 34.2091 32.58 34.2421 32.361L36.9921 13.861C37.0331 13.581 36.9151 13.303 36.6851 13.139Z" fill="white"/>
</g>
<defs>
<clipPath id="clip0_179_288">
<rect width="24" height="24" fill="white" transform="translate(13 13)"/>
</clipPath>
</defs>
</svg>
