<svg width="30" height="30" viewBox="0 0 30 30" fill="none" xmlns="http://www.w3.org/2000/svg">
<g clip-path="url(#clip0_187_393)">
<path d="M15.8809 0C13.9419 0 12.3066 1.63529 12.3066 3.57421C12.3066 5.51314 13.9419 7.14843 15.8809 7.14843C17.8198 7.14843 19.3965 5.51314 19.3965 3.57421C19.3965 1.63529 17.8198 0 15.8809 0Z" fill="#162A41"/>
<path d="M19.7827 7.14844C18.8168 8.21947 17.4333 8.90625 15.8808 8.90625C14.3284 8.90625 12.8863 8.21947 11.9204 7.14844C11.0771 8.08353 10.5488 9.30855 10.5488 10.6641V11.543C10.5488 12.0288 10.9419 12.4219 11.4277 12.4219H20.2754C20.7612 12.4219 21.1543 12.0288 21.1543 11.543V10.6641C21.1543 9.30855 20.626 8.08353 19.7827 7.14844Z" fill="#162A41"/>
<path d="M8.49343 26.9769L4.01448 17.9971C3.582 17.13 2.52942 16.7764 1.66124 17.2065L0.490599 17.7864C0.0547217 18.0026 -0.122641 18.5323 0.0949169 18.9674L5.36834 29.5143C5.58519 29.9492 6.11271 30.1223 6.54507 29.9091L7.70066 29.3366C8.57224 28.9049 8.92749 27.8473 8.49343 26.9769Z" fill="#162A41"/>
<path d="M29.2801 14.5135C28.5593 13.9861 27.5574 14.0916 26.9598 14.742L22.1551 20.6482C21.8211 20.9998 21.1883 21.2107 20.8543 21.2107H16.7586C16.2663 21.2107 15.8796 20.8241 15.8796 20.3318C15.8796 19.8396 16.2663 19.4529 16.7586 19.4529C17.9357 19.4529 19.2389 19.4529 20.2742 19.4529C21.241 19.4529 22.032 18.6619 22.032 17.6951C22.032 16.7283 21.241 15.9373 20.2742 15.9373C16.1465 15.9373 20.0837 15.9373 15.6687 15.9373C15.2307 15.9373 15.0122 15.6595 14.6668 15.3572C13.3069 14.1334 11.2713 13.5439 9.21058 14.0215C8.06636 14.2867 7.29474 14.749 6.51217 15.3688L6.48609 15.3476L5.21484 16.4664L10.2108 26.4841H11.6901H20.2742C21.9265 26.4841 23.5086 25.6931 24.493 24.3748L29.6492 16.992C30.2292 16.2185 30.071 15.0936 29.2801 14.5135Z" fill="#162A41"/>
</g>
<defs>
<clipPath id="clip0_187_393">
<rect width="30" height="30" fill="white"/>
</clipPath>
</defs>
</svg>
