<svg width="22" height="41" viewBox="0 0 22 41" fill="none" xmlns="http://www.w3.org/2000/svg">
<g clip-path="url(#clip0_227_536)">
<path d="M18.6414 30.0765V11.7269L15.2602 12.943V5.01683L6.73975 0.5V14.2025L8.49795 13.5727V3.51846L13.4795 6.21118V13.5727L11.8791 14.1591V7.2101L10.1209 6.2329V14.7671L3.38115 17.1992V24.6042L0 23.3882V40.4783H11.8791V31.2709L10.1209 30.6412V38.6759H1.7582V25.842L6.73975 27.6227V35.0494H5.13934V28.8605L3.38115 28.2307V36.8735H8.52049V28.2742L20.2418 32.487V38.6976H15.2602V34.3328L16.8607 34.9191V36.8952H18.6189V33.7248L13.4795 31.8789V33.703V40.5217H22V31.3143L18.6414 30.0765ZM16.8607 29.4468L11.8791 27.6661V19.5879L13.4795 19.0016V26.4718L15.2377 27.1015V16.5695L10.0984 18.4153V27.0364L5.1168 25.2557V18.3719L6.71721 17.7856V24.0396L8.47541 24.6694V17.1775L16.8607 14.1808V29.4468Z" fill="#162A41"/>
</g>
<defs>
<clipPath id="clip0_227_536">
<rect width="22" height="40" fill="white" transform="translate(0 0.5)"/>
</clipPath>
</defs>
</svg>
