<svg width="22" height="19" viewBox="0 0 22 19" fill="none" xmlns="http://www.w3.org/2000/svg">
<path d="M20.5553 3.05167C19.3268 1.51118 17.6003 0.617188 15.9698 0.617188C13.8174 0.617188 12.9069 1.64768 11.4114 1.64768C9.86938 1.64768 8.69789 0.620188 6.8364 0.620188C5.00791 0.620188 3.06092 1.73768 1.82643 3.64867C0.0909416 6.33965 0.38794 11.3991 3.20042 15.7086C4.20692 17.2506 5.55091 18.9846 7.3089 18.9996C8.87339 19.0146 9.31439 17.9961 11.4339 17.9856C13.5534 17.9736 13.9554 19.0131 15.5169 18.9966C17.2763 18.9831 18.6938 17.0616 19.7003 15.5196C20.4218 14.4141 20.6903 13.8576 21.2498 12.6096C17.1803 11.0601 16.5278 5.27316 20.5553 3.05167Z" fill="white"/>
</svg>
