<svg width="42" height="42" viewBox="0 0 42 42" fill="none" xmlns="http://www.w3.org/2000/svg">
<g clip-path="url(#clip0_72_23)">
<path d="M38.6156 12.9655L25.0811 0.543047C24.6365 0.187441 24.1054 0 23.5454 0C22.9856 0 22.4533 0.187441 22.0087 0.543047L8.47564 12.9284C7.41498 13.7754 7.2391 15.3225 8.09108 16.3863C8.93543 17.4437 10.4844 17.6238 11.549 16.7709L23.5454 5.69797L35.5445 16.8092C36.5348 17.6067 38.1949 17.4347 39 16.4223C39.8508 15.3629 39.6773 13.8134 38.6156 12.9655Z" fill="#162A41"/>
<path d="M35.8491 0.00390625H30.9277C30.2476 0.00390625 29.6973 0.554172 29.6973 1.23429V1.42838L37.0794 8.23714V1.23429C37.0795 0.554172 36.5292 0.00390625 35.8491 0.00390625Z" fill="#162A41"/>
<path d="M3.85905 19.7715H1.23429C0.554254 19.7715 0.00390625 20.3218 0.00390625 21.0019V40.7697C0.00390625 41.4497 0.554172 42.0001 1.23429 42.0001H3.85905C5.89441 42.0001 7.55013 40.3444 7.55013 38.309V23.4626C7.55013 21.4272 5.89449 19.7715 3.85905 19.7715Z" fill="#162A41"/>
<path d="M40.9923 22.6995C39.9833 21.9613 38.5807 22.109 37.7441 23.0195L31.1002 31.2875C30.6326 31.7796 29.7467 32.0749 29.2792 32.0749H18.6242C17.9351 32.0749 17.3938 31.5336 17.3938 30.8445C17.3938 30.1554 17.935 29.6141 18.6242 29.6141C24.1362 29.6141 22.3399 29.6141 28.4671 29.6141C29.8205 29.6141 30.9278 28.5068 30.9278 27.1534C30.9278 25.8 29.8205 24.6927 28.4671 24.6927C22.6888 24.6927 28.2005 24.6927 22.02 24.6927C21.4068 24.6927 21.101 24.3038 20.6174 23.8806C19.8792 23.2163 19.0425 22.7241 18.1813 22.3796C15.5148 21.2907 12.4336 21.6202 10.0117 23.3045C10.0117 27.7846 10.0117 34.4602 10.0117 39.5391H28.4672C30.7803 39.5391 32.995 38.4317 34.373 36.5862L41.5091 26.1691C42.321 25.0864 42.0996 23.5116 40.9923 22.6995Z" fill="#162A41"/>
<path d="M23.5416 9.04883L12.4707 19.2681V19.602C13.2829 19.4149 14.1108 19.2882 14.9578 19.2882C16.3913 19.2882 17.7874 19.5622 19.1091 20.1016C19.3697 20.2059 19.6034 20.3534 19.8528 20.4761V18.5409C19.8528 17.8609 20.403 17.3105 21.0832 17.3105H26.0046C26.6847 17.3105 27.235 17.8608 27.235 18.5409V22.232H28.4655C30.4396 22.232 32.1457 23.3999 32.9291 25.0808L34.6173 22.98V19.2974L23.5416 9.04883Z" fill="#162A41"/>
<path d="M22.3145 19.7715V22.0986L22.4623 22.2323H24.7752V19.7715H22.3145Z" fill="#162A41"/>
</g>
<defs>
<clipPath id="clip0_72_23">
<rect width="42" height="42" fill="white"/>
</clipPath>
</defs>
</svg>
