<svg width="60" height="60" viewBox="0 0 60 60" fill="none" xmlns="http://www.w3.org/2000/svg">
<circle cx="30" cy="30" r="30" fill="#162A41"/>
<g clip-path="url(#clip0_310_344)">
<path d="M26.75 35.612V40.25C26.75 40.574 26.958 40.861 27.266 40.963C27.343 40.988 27.422 41 27.5 41C27.734 41 27.96 40.89 28.104 40.694L30.817 37.002L26.75 35.612Z" fill="white"/>
<path d="M41.6851 18.139C41.4551 17.976 41.1531 17.954 40.9031 18.085L18.403 29.835C18.137 29.974 17.98 30.2579 18.002 30.5569C18.025 30.8569 18.224 31.1129 18.507 31.2099L24.762 33.3479L38.0831 21.958L27.775 34.3769L38.2581 37.9599C38.3361 37.9859 38.4181 37.9999 38.5001 37.9999C38.6361 37.9999 38.7711 37.9629 38.8901 37.8909C39.0801 37.7749 39.2091 37.5799 39.2421 37.3609L41.9921 18.861C42.0331 18.581 41.9151 18.303 41.6851 18.139Z" fill="white"/>
</g>
<defs>
<clipPath id="clip0_310_344">
<rect width="24" height="24" fill="white" transform="translate(18 18)"/>
</clipPath>
</defs>
</svg>
