<svg width="36" height="36" viewBox="0 0 36 36" fill="none" xmlns="http://www.w3.org/2000/svg">
<circle opacity="0.9" cx="18" cy="18" r="18" fill="white"/>
<path d="M25.3671 11.8412C24.9415 11.4154 24.4361 11.0776 23.8799 10.8471C23.3237 10.6167 22.7275 10.498 22.1254 10.498C21.5234 10.498 20.9272 10.6167 20.371 10.8471C19.8147 11.0776 19.3094 11.4154 18.8838 11.8412L18.0004 12.7246L17.1171 11.8412C16.2573 10.9815 15.0913 10.4985 13.8754 10.4985C12.6596 10.4985 11.4935 10.9815 10.6338 11.8412C9.77401 12.701 9.29102 13.867 9.29102 15.0829C9.29102 16.2988 9.77401 17.4648 10.6338 18.3246L11.5171 19.2079L18.0004 25.6912L24.4838 19.2079L25.3671 18.3246C25.7929 17.8989 26.1307 17.3936 26.3612 16.8374C26.5917 16.2811 26.7103 15.685 26.7103 15.0829C26.7103 14.4808 26.5917 13.8847 26.3612 13.3284C26.1307 12.7722 25.7929 12.2669 25.3671 11.8412Z" fill="#162A41"/>
</svg>
