<svg width="36" height="36" viewBox="0 0 36 36" fill="none" xmlns="http://www.w3.org/2000/svg">
<path d="M24.5424 26.29L27.5026 24.693C27.1842 24.4328 26.7327 24.3063 26.3691 24.4875L24.0918 25.7146C24.2346 25.9085 24.351 26.1205 24.438 26.345L24.5424 26.29Z" fill="#162A41"/>
<path d="M8.76569 33.4152C8.82983 33.4152 8.89253 33.3962 8.94585 33.3605C8.99918 33.3249 9.04075 33.2742 9.06529 33.215C9.08983 33.1557 9.09625 33.0905 9.08373 33.0276C9.07121 32.9647 9.04032 32.9069 8.99496 32.8616C8.9496 32.8162 8.89182 32.7853 8.82891 32.7728C8.766 32.7603 8.70079 32.7668 8.64154 32.7913C8.58229 32.8159 8.53165 32.8574 8.49602 32.9108C8.4604 32.9641 8.44139 33.0268 8.44141 33.091C8.4415 33.1769 8.4757 33.2594 8.53649 33.3201C8.59729 33.3809 8.67972 33.4151 8.76569 33.4152Z" fill="#162A41"/>
<path d="M24.8527 24.3471C24.6024 24.2219 24.3249 24.1608 24.0451 24.1692C23.7653 24.1777 23.492 24.2554 23.2496 24.3955C23.2463 24.3974 23.243 24.3993 23.2396 24.4011L22.666 24.713C22.9503 24.7968 23.2189 24.9265 23.4613 25.097L24.8527 24.3471Z" fill="#162A41"/>
<path d="M5.49414 25.0996L6.63475 34.4531H11.2876L8.43588 25.0996H5.49414ZM9.9341 33.0908C9.9341 33.3218 9.86559 33.5476 9.73725 33.7397C9.6089 33.9318 9.42648 34.0815 9.21305 34.1699C8.99962 34.2583 8.76477 34.2814 8.53819 34.2364C8.31162 34.1913 8.10349 34.08 7.94014 33.9167C7.77679 33.7533 7.66554 33.5452 7.62048 33.3186C7.57541 33.0921 7.59854 32.8572 7.68694 32.6438C7.77535 32.4304 7.92506 32.2479 8.11714 32.1196C8.30922 31.9912 8.53505 31.9227 8.76606 31.9227C9.07574 31.9231 9.37264 32.0462 9.59162 32.2652C9.81059 32.4842 9.93376 32.7811 9.9341 33.0908Z" fill="#162A41"/>
<path d="M28.768 24.9696L24.9398 27.0348L24.6192 27.2036C24.6211 27.2446 24.6223 27.2858 24.6223 27.3273C24.6223 27.4392 24.5779 27.5465 24.4988 27.6256C24.4197 27.7048 24.3123 27.7492 24.2005 27.7492C24.1942 27.7492 24.1878 27.7492 24.1814 27.7488L21.5386 27.6293C20.7691 27.5946 19.998 27.6302 19.2349 27.7356C19.1241 27.751 19.0117 27.7216 18.9225 27.6541C18.8333 27.5866 18.7745 27.4864 18.7592 27.3755C18.7439 27.2647 18.7732 27.1523 18.8408 27.0631C18.9083 26.9739 19.0085 26.9152 19.1193 26.8998C19.9333 26.7873 20.7559 26.7493 21.5768 26.7863L23.7257 26.8837C23.6256 26.474 23.391 26.1098 23.0595 25.8492C22.728 25.5886 22.3186 25.4467 21.897 25.4462H18.7986C18.1797 25.4454 17.5689 25.3055 17.0114 25.0367L16.6919 24.882C15.9119 24.5025 15.0424 24.3455 14.179 24.4283C13.3156 24.511 12.4918 24.8303 11.7981 25.3511L11.0399 26.0261C10.6843 26.3424 10.2671 26.5816 9.81445 26.7287L11.2866 31.5573L13.3408 30.2587C13.3472 30.2546 13.3537 30.2506 13.3604 30.247C13.8352 29.9805 14.3935 29.9046 14.9222 30.0345L19.5661 30.8897C20.659 31.085 21.7856 30.929 22.7844 30.4441L30.4424 25.186C30.2214 24.9788 29.9407 24.8464 29.6402 24.8075C29.3397 24.7687 29.0345 24.8254 28.768 24.9696Z" fill="#162A41"/>
<path d="M15.2871 0.703125C15.1752 0.703125 15.0679 0.747572 14.9888 0.826689C14.9097 0.905806 14.8652 1.01311 14.8652 1.125V2.78761H15.709V1.125C15.709 1.01311 15.6645 0.905806 15.5854 0.826689C15.5063 0.747572 15.399 0.703125 15.2871 0.703125Z" fill="#162A41"/>
<path d="M27.5488 12.436C27.4369 12.436 27.3296 12.4805 27.2505 12.5596C27.1714 12.6387 27.127 12.746 27.127 12.8579V14.0341H27.9707V12.9282C27.9707 12.6953 27.7818 12.436 27.5488 12.436Z" fill="#162A41"/>
<path d="M8.13867 8.93945C8.13867 8.82757 8.09422 8.72026 8.01511 8.64114C7.93599 8.56203 7.82869 8.51758 7.7168 8.51758C7.60491 8.51758 7.4976 8.56203 7.41849 8.64114C7.33937 8.72026 7.29492 8.82757 7.29492 8.93945V9.63133H8.13867V8.93945Z" fill="#162A41"/>
<path d="M19.7793 7.66699V21.5702H24.9V12.1513C24.359 12.092 23.8361 11.9224 23.3633 11.653C22.8906 11.3835 22.4782 11.0199 22.1516 10.5847C21.6405 9.9029 21.3653 9.07321 21.3677 8.22113C21.368 8.03572 21.3812 7.85055 21.4073 7.66699H19.7793ZM23.7631 19.4857H20.8088C20.6969 19.4857 20.5896 19.4413 20.5105 19.3622C20.4314 19.2831 20.3869 19.1758 20.3869 19.0639C20.3869 18.952 20.4314 18.8447 20.5105 18.7656C20.5896 18.6864 20.6969 18.642 20.8088 18.642H23.7629C23.8748 18.642 23.9821 18.6864 24.0612 18.7656C24.1404 18.8447 24.1848 18.952 24.1848 19.0639C24.1848 19.1758 24.1404 19.2831 24.0612 19.3622C23.9821 19.4413 23.8748 19.4857 23.7629 19.4857H23.7631ZM23.7631 17.1275H20.8088C20.6969 17.1275 20.5896 17.0831 20.5105 17.004C20.4314 16.9249 20.3869 16.8176 20.3869 16.7057C20.3869 16.5938 20.4314 16.4865 20.5105 16.4074C20.5896 16.3282 20.6969 16.2838 20.8088 16.2838H23.7629C23.8748 16.2838 23.9821 16.3282 24.0612 16.4074C24.1404 16.4865 24.1848 16.5938 24.1848 16.7057C24.1848 16.8176 24.1404 16.9249 24.0612 17.004C23.9821 17.0831 23.8748 17.1275 23.7629 17.1275H23.7631ZM24.185 14.3475C24.185 14.4594 24.1406 14.5667 24.0614 14.6458C23.9823 14.725 23.875 14.7694 23.7631 14.7694H20.8088C20.6969 14.7694 20.5896 14.725 20.5105 14.6458C20.4314 14.5667 20.3869 14.4594 20.3869 14.3475C20.3869 14.2356 20.4314 14.1283 20.5105 14.0492C20.5896 13.9701 20.6969 13.9256 20.8088 13.9256H23.7629C23.8748 13.9256 23.9821 13.9701 24.0612 14.0492C24.1404 14.1283 24.1848 14.2356 24.1848 14.3475H24.185ZM22.4209 11.5674C22.5328 11.5674 22.6401 11.6119 22.7192 11.691C22.7983 11.7701 22.8427 11.8774 22.8427 11.9893C22.8427 12.1012 22.7983 12.2085 22.7192 12.2876C22.6401 12.3667 22.5328 12.4112 22.4209 12.4112H20.8088C20.6969 12.4112 20.5896 12.3667 20.5105 12.2876C20.4314 12.2085 20.3869 12.1012 20.3869 11.9893C20.3869 11.8774 20.4314 11.7701 20.5105 11.691C20.5896 11.6119 20.6969 11.5674 20.8088 11.5674H22.4209ZM21.5005 9.63117C21.5005 9.74306 21.456 9.85036 21.3769 9.92948C21.2978 10.0086 21.1905 10.053 21.0786 10.053H20.809C20.6971 10.053 20.5898 10.0086 20.5107 9.92948C20.4316 9.85036 20.3872 9.74306 20.3872 9.63117C20.3872 9.51928 20.4316 9.41198 20.5107 9.33286C20.5898 9.25374 20.6971 9.2093 20.809 9.2093H21.0786C21.1905 9.20935 21.2977 9.25383 21.3768 9.33294C21.4558 9.41205 21.5003 9.51932 21.5003 9.63117H21.5005Z" fill="#162A41"/>
<path d="M10.269 11.1118L5.36719 13.5239V21.5702H10.269V11.1118ZM9.10043 20.1491H6.60968C6.49779 20.1491 6.39049 20.1046 6.31137 20.0255C6.23225 19.9464 6.1878 19.8391 6.1878 19.7272C6.1878 19.6153 6.23225 19.508 6.31137 19.4289C6.39049 19.3498 6.49779 19.3053 6.60968 19.3053H9.10043C9.21232 19.3053 9.31962 19.3498 9.39874 19.4289C9.47786 19.508 9.5223 19.6153 9.5223 19.7272C9.5223 19.8391 9.47786 19.9464 9.39874 20.0255C9.31962 20.1046 9.21232 20.1491 9.10043 20.1491ZM9.10043 18.5347H6.60968C6.49779 18.5347 6.39049 18.4903 6.31137 18.4111C6.23225 18.332 6.1878 18.2247 6.1878 18.1128C6.1878 18.0009 6.23225 17.8936 6.31137 17.8145C6.39049 17.7354 6.49779 17.6909 6.60968 17.6909H9.10043C9.21232 17.6909 9.31962 17.7354 9.39874 17.8145C9.47786 17.8936 9.5223 18.0009 9.5223 18.1128C9.5223 18.2247 9.47786 18.332 9.39874 18.4111C9.31962 18.4903 9.21232 18.5347 9.10043 18.5347ZM9.10043 16.9204H6.60968C6.49779 16.9204 6.39049 16.8759 6.31137 16.7968C6.23225 16.7177 6.1878 16.6104 6.1878 16.4985C6.1878 16.3866 6.23225 16.2793 6.31137 16.2002C6.39049 16.1211 6.49779 16.0766 6.60968 16.0766H9.10043C9.21232 16.0766 9.31962 16.1211 9.39874 16.2002C9.47786 16.2793 9.5223 16.3866 9.5223 16.4985C9.5223 16.6104 9.47786 16.7177 9.39874 16.7968C9.31962 16.8759 9.21232 16.9204 9.10043 16.9204ZM9.10043 15.306H6.60968C6.49779 15.306 6.39049 15.2616 6.31137 15.1825C6.23225 15.1033 6.1878 14.996 6.1878 14.8841C6.1878 14.7723 6.23225 14.665 6.31137 14.5858C6.39049 14.5067 6.49779 14.4623 6.60968 14.4623H9.10043C9.21232 14.4623 9.31962 14.5067 9.39874 14.5858C9.47786 14.665 9.5223 14.7723 9.5223 14.8841C9.5223 14.996 9.47786 15.1033 9.39874 15.1825C9.31962 15.2616 9.21232 15.306 9.10043 15.306Z" fill="#162A41"/>
<path d="M11.1133 21.5703H18.9351V5.62061H11.1133V21.5703ZM12.7335 7.48163H17.3152C17.4271 7.48163 17.5344 7.52608 17.6135 7.6052C17.6926 7.68432 17.7371 7.79162 17.7371 7.90351C17.7371 8.0154 17.6926 8.1227 17.6135 8.20182C17.5344 8.28094 17.4271 8.32538 17.3152 8.32538H12.7335C12.6216 8.32538 12.5143 8.28094 12.4352 8.20182C12.3561 8.1227 12.3116 8.0154 12.3116 7.90351C12.3116 7.79162 12.3561 7.68432 12.4352 7.6052C12.5143 7.52608 12.6216 7.48163 12.7335 7.48163ZM12.7335 9.88836H17.3152C17.4271 9.88836 17.5344 9.93281 17.6135 10.0119C17.6926 10.091 17.7371 10.1983 17.7371 10.3102C17.7371 10.4221 17.6926 10.5294 17.6135 10.6085C17.5344 10.6877 17.4271 10.7321 17.3152 10.7321H12.7335C12.6216 10.7321 12.5143 10.6877 12.4352 10.6085C12.3561 10.5294 12.3116 10.4221 12.3116 10.3102C12.3116 10.1983 12.3561 10.091 12.4352 10.0119C12.5143 9.93281 12.6216 9.88836 12.7335 9.88836ZM12.7335 12.295H17.3152C17.4271 12.295 17.5344 12.3395 17.6135 12.4186C17.6926 12.4977 17.7371 12.605 17.7371 12.7169C17.7371 12.8288 17.6926 12.9361 17.6135 13.0152C17.5344 13.0943 17.4271 13.1388 17.3152 13.1388H12.7335C12.6216 13.1388 12.5143 13.0943 12.4352 13.0152C12.3561 12.9361 12.3116 12.8288 12.3116 12.7169C12.3116 12.605 12.3561 12.4977 12.4352 12.4186C12.5143 12.3395 12.6216 12.295 12.7335 12.295ZM12.7335 14.7018H17.3152C17.4271 14.7018 17.5344 14.7463 17.6135 14.8254C17.6926 14.9045 17.7371 15.0118 17.7371 15.1237C17.7371 15.2356 17.6926 15.3429 17.6135 15.422C17.5344 15.5011 17.4271 15.5456 17.3152 15.5456H12.7335C12.6216 15.5456 12.5143 15.5011 12.4352 15.422C12.3561 15.3429 12.3116 15.2356 12.3116 15.1237C12.3116 15.0118 12.3561 14.9045 12.4352 14.8254C12.5143 14.7463 12.6216 14.7018 12.7335 14.7018ZM12.7335 17.1085H17.3152C17.4271 17.1085 17.5344 17.1529 17.6135 17.232C17.6926 17.3111 17.7371 17.4184 17.7371 17.5303C17.7371 17.6422 17.6926 17.7495 17.6135 17.8286C17.5344 17.9078 17.4271 17.9522 17.3152 17.9522H12.7335C12.6216 17.9522 12.5143 17.9078 12.4352 17.8286C12.3561 17.7495 12.3116 17.6422 12.3116 17.5303C12.3116 17.4184 12.3561 17.3111 12.4352 17.232C12.5143 17.1529 12.6216 17.1085 12.7335 17.1085ZM12.7335 19.5152H17.3152C17.4271 19.5152 17.5344 19.5596 17.6135 19.6388C17.6926 19.7179 17.7371 19.8252 17.7371 19.9371C17.7371 20.0489 17.6926 20.1563 17.6135 20.2354C17.5344 20.3145 17.4271 20.3589 17.3152 20.3589H12.7335C12.6216 20.3589 12.5143 20.3145 12.4352 20.2354C12.3561 20.1563 12.3116 20.0489 12.3116 19.9371C12.3116 19.8252 12.3561 19.7179 12.4352 19.6388C12.5143 19.5596 12.6216 19.5152 12.7335 19.5152Z" fill="#162A41"/>
<path d="M8.54153 10.1309H6.89453V11.8328L8.54153 11.0223V10.1309Z" fill="#162A41"/>
<path d="M29.3536 15.8364H25.7422V21.5704H29.3536V15.8364ZM28.1768 20.8872H26.7671C26.6552 20.8872 26.5479 20.8427 26.4688 20.7636C26.3896 20.6845 26.3452 20.5772 26.3452 20.4653C26.3452 20.3534 26.3896 20.2461 26.4688 20.167C26.5479 20.0879 26.6552 20.0434 26.7671 20.0434H28.1766C28.2885 20.0434 28.3958 20.0879 28.4749 20.167C28.554 20.2461 28.5985 20.3534 28.5985 20.4653C28.5985 20.5772 28.554 20.6845 28.4749 20.7636C28.3958 20.8427 28.2885 20.8872 28.1766 20.8872H28.1768ZM28.1768 19.2959H26.7671C26.6552 19.2959 26.5479 19.2514 26.4688 19.1723C26.3896 19.0932 26.3452 18.9859 26.3452 18.874C26.3452 18.7621 26.3896 18.6548 26.4688 18.5757C26.5479 18.4966 26.6552 18.4521 26.7671 18.4521H28.1766C28.2885 18.4521 28.3958 18.4966 28.4749 18.5757C28.554 18.6548 28.5985 18.7621 28.5985 18.874C28.5985 18.9859 28.554 19.0932 28.4749 19.1723C28.3958 19.2514 28.2885 19.2959 28.1766 19.2959H28.1768ZM28.1768 17.7046H26.7671C26.6552 17.7046 26.5479 17.6601 26.4688 17.581C26.3896 17.5019 26.3452 17.3946 26.3452 17.2827C26.3452 17.1708 26.3896 17.0635 26.4688 16.9844C26.5479 16.9053 26.6552 16.8608 26.7671 16.8608H28.1766C28.2885 16.8608 28.3958 16.9053 28.4749 16.9844C28.554 17.0635 28.5985 17.1708 28.5985 17.2827C28.5985 17.3946 28.554 17.5019 28.4749 17.581C28.3958 17.6601 28.2885 17.7046 28.1766 17.7046H28.1768Z" fill="#162A41"/>
<path d="M25.3214 5.11084C24.7062 5.11083 24.1049 5.29324 23.5934 5.635C23.0818 5.97677 22.6832 6.46255 22.4477 7.0309C22.2123 7.59925 22.1507 8.22466 22.2707 8.82802C22.3907 9.43139 22.6869 9.98562 23.1219 10.4206C23.5569 10.8556 24.1112 11.1519 24.7145 11.2719C25.3179 11.3919 25.9433 11.3303 26.5116 11.0949C27.08 10.8595 27.5658 10.4608 27.9076 9.94931C28.2494 9.43781 28.4318 8.83644 28.4318 8.22125C28.4308 7.39662 28.1029 6.60602 27.5198 6.02291C26.9367 5.4398 26.1461 5.11179 25.3214 5.11084ZM25.3214 7.78032C25.6178 7.78008 25.9047 7.88458 26.1315 8.07537C26.3583 8.26616 26.5103 8.53095 26.5608 8.82298C26.6113 9.11501 26.5569 9.41549 26.4073 9.67132C26.2577 9.92716 26.0226 10.1219 25.7433 10.2212V10.3711C25.7433 10.4829 25.6989 10.5903 25.6197 10.6694C25.5406 10.7485 25.4333 10.7929 25.3214 10.7929C25.2095 10.7929 25.1022 10.7485 25.0231 10.6694C24.944 10.5903 24.8996 10.4829 24.8996 10.3711V10.2214C24.6553 10.1342 24.444 9.97383 24.2944 9.76204C24.1448 9.55025 24.0643 9.29743 24.0638 9.03814C24.0638 8.92626 24.1083 8.81895 24.1874 8.73983C24.2665 8.66072 24.3738 8.61627 24.4857 8.61627C24.5976 8.61627 24.7049 8.66072 24.784 8.73983C24.8631 8.81895 24.9076 8.92626 24.9076 9.03814C24.9077 9.14678 24.9506 9.251 25.0269 9.32834C25.1031 9.40569 25.2068 9.44997 25.3154 9.45165C25.3174 9.45165 25.3195 9.45165 25.3215 9.45165C25.3235 9.45165 25.3256 9.45165 25.3276 9.45165C25.4366 9.44968 25.5403 9.40481 25.6164 9.32679C25.6924 9.24877 25.7346 9.1439 25.7338 9.03494C25.733 8.92599 25.6893 8.82175 25.6121 8.74487C25.5349 8.66798 25.4305 8.62465 25.3215 8.62428C25.0252 8.62448 24.7383 8.51996 24.5116 8.32918C24.2848 8.13839 24.1328 7.87363 24.0823 7.58163C24.0319 7.28964 24.0862 6.9892 24.2357 6.73338C24.3853 6.47756 24.6204 6.28281 24.8996 6.18353V6.07166C24.8996 5.95977 24.9441 5.85247 25.0232 5.77335C25.1023 5.69423 25.2096 5.64978 25.3215 5.64978C25.4334 5.64978 25.5407 5.69423 25.6198 5.77335C25.6989 5.85247 25.7434 5.95977 25.7434 6.07166V6.18332C25.9876 6.27043 26.1989 6.43085 26.3485 6.64264C26.4981 6.85442 26.5787 7.10724 26.5791 7.36653C26.5791 7.47842 26.5347 7.58573 26.4555 7.66485C26.3764 7.74396 26.2691 7.78841 26.1572 7.78841C26.0453 7.78841 25.938 7.74396 25.8589 7.66485C25.7798 7.58573 25.7354 7.47842 25.7354 7.36653C25.7354 7.28468 25.7111 7.20466 25.6656 7.13659C25.6202 7.06852 25.5555 7.01546 25.4799 6.98413C25.4043 6.95279 25.3211 6.94459 25.2408 6.96055C25.1605 6.97651 25.0868 7.01592 25.0289 7.0738C24.971 7.13167 24.9316 7.20542 24.9156 7.2857C24.8996 7.36598 24.9078 7.4492 24.9391 7.52483C24.9705 7.60045 25.0235 7.66509 25.0916 7.71057C25.1596 7.75605 25.2396 7.78032 25.3215 7.78032H25.3214Z" fill="#162A41"/>
<path d="M17.7142 3.24268H12.334V4.77676H17.7142V3.24268Z" fill="#162A41"/>
<path d="M28.2176 14.373H26.8789V14.9926H28.2176V14.373Z" fill="#162A41"/>
</svg>
