<svg width="53" height="16" viewBox="0 0 53 16" fill="none" xmlns="http://www.w3.org/2000/svg">
<path d="M20.6021 5.28333C20.7621 5.15417 21 5.275 21 5.47917V14C21 15.1042 20.1182 16 19.0312 16H1.96875C0.881836 16 0 15.1042 0 14V5.48333C0 5.275 0.233789 5.15833 0.397852 5.2875C1.3166 6.0125 2.53477 6.93333 6.71836 10.0208C7.58379 10.6625 9.04395 12.0125 10.5 12.0042C11.9643 12.0167 13.4531 10.6375 14.2857 10.0208C18.4693 6.93333 19.6834 6.00833 20.6021 5.28333ZM10.5 10.6667C11.4516 10.6833 12.8215 9.45 13.5105 8.94167C18.9533 4.92917 19.3676 4.57917 20.6227 3.57917C20.8605 3.39167 21 3.1 21 2.79167V2C21 0.895833 20.1182 0 19.0312 0H1.96875C0.881836 0 0 0.895833 0 2V2.79167C0 3.1 0.139453 3.3875 0.377344 3.57917C1.63242 4.575 2.04668 4.92917 7.48945 8.94167C8.17852 9.45 9.54844 10.6833 10.5 10.6667Z" fill="#2A2C30"/>
<path d="M40.5814 16H37.2643V5.31762H40.5814V16ZM38.9211 3.86044C37.8604 3.86044 37 2.98185 37 1.92111C37 1.4116 37.2024 0.92296 37.5627 0.562681C37.9229 0.202403 38.4116 0 38.9211 0C39.4306 0 39.9192 0.202403 40.2795 0.562681C40.6397 0.92296 40.8421 1.4116 40.8421 1.92111C40.8421 2.98185 39.9814 3.86044 38.9211 3.86044ZM52.9964 16H49.6864V10.7999C49.6864 9.56057 49.6614 7.97125 47.9618 7.97125C46.2371 7.97125 45.9729 9.31771 45.9729 10.7106V16H42.6593V5.31762H45.8407V6.77479H45.8871C46.33 5.93549 47.4118 5.04976 49.0257 5.04976C52.3829 5.04976 53 7.26052 53 10.132V16H52.9964Z" fill="#2A2C30"/>
</svg>
