<svg width="40" height="39" viewBox="0 0 40 39" fill="none" xmlns="http://www.w3.org/2000/svg">
<path d="M10.5695 24.5607L2.60098 28.1364C0.905141 28.9072 0.905141 30.1695 2.60098 30.9403L16.8615 37.4443C18.4889 38.1852 21.1676 38.1852 22.795 37.4443L37.0555 30.9403C38.7514 30.1695 38.7514 28.9072 37.0555 28.1364L29.3529 24.4296M37.0478 8.09653L22.6563 1.53477C21.0963 0.821744 18.5429 0.821744 16.9829 1.53477L2.60098 8.09653C0.905141 8.86737 0.905141 10.1287 2.60098 10.8995L16.8615 17.4034C18.4889 18.1454 21.1676 18.1454 22.795 17.4034L37.0555 10.8995C38.7437 10.1287 38.7437 8.86641 37.0478 8.09653Z" stroke="#7B7B7B" stroke-width="2" stroke-linecap="round" stroke-linejoin="round"/>
</svg>
