<svg width="59" height="56" viewBox="0 0 59 56" fill="none" xmlns="http://www.w3.org/2000/svg">
<path d="M15.1588 35.6594L3.09835 41.0713C0.531669 42.238 0.531669 44.1484 3.09835 45.3151L24.6818 55.1589C27.145 56.2804 31.1992 56.2804 33.6623 55.1589L55.2458 45.3151C57.8125 44.1484 57.8125 42.238 55.2458 41.0713L43.5878 35.4611M55.2341 10.7407L33.4523 0.80938C31.0912 -0.269793 27.2266 -0.269793 24.8656 0.80938L3.09835 10.7407C0.531669 11.9074 0.531669 13.8163 3.09835 14.983L24.6818 24.8268C27.145 25.9498 31.1992 25.9498 33.6623 24.8268L55.2458 14.983C57.8008 13.8163 57.8008 11.9059 55.2341 10.7407Z" stroke="#F8F8FB" stroke-width="2" stroke-linecap="round" stroke-linejoin="round"/>
</svg>
