<svg width="22" height="24" viewBox="0 0 22 24" fill="none" xmlns="http://www.w3.org/2000/svg">
<path d="M20.7518 10.2891L3.20478 0.258971C2.90227 0.0861714 2.56547 0 2.22867 0C2.22181 0 2.21507 0.000914286 2.20833 0.000914286C2.16307 0.00137143 2.11793 0.00365714 2.0729 0.0072C2.05256 0.0088 2.03233 0.0109714 2.01198 0.0132571C1.97678 0.0171429 1.9417 0.0220571 1.90673 0.0278857C1.89404 0.0300571 1.88124 0.0307429 1.86856 0.0331429L1.86924 0.0340571C1.65061 0.0744 1.43724 0.151429 1.23896 0.266514C0.631641 0.618857 0.257812 1.26789 0.257812 1.96994V22.0302C0.257812 22.7322 0.631641 23.3813 1.23896 23.7336C1.43713 23.8487 1.6505 23.9258 1.86913 23.9662L1.86856 23.967C1.87998 23.9691 1.89153 23.9698 1.90284 23.9717C1.94044 23.9781 1.97816 23.9833 2.01598 23.9873C2.03496 23.9894 2.05381 23.9914 2.07278 23.9929C2.11724 23.9965 2.16158 23.9985 2.20616 23.9991C2.2137 23.9992 2.22113 24.0001 2.22867 24.0001C2.56547 24.0001 2.90227 23.9139 3.20478 23.7411L20.7518 13.7109C21.3652 13.3601 21.7439 12.7078 21.7439 12.0009C21.7439 12.0009 21.7439 12.0006 21.7439 12.0005C21.7439 12.0005 21.7439 12.0001 21.7439 12C21.7439 12 21.7439 11.9997 21.7439 11.9995C21.7439 11.9995 21.7439 11.9992 21.7439 11.9991C21.7439 11.2923 21.3652 10.64 20.7518 10.2891ZM13.8126 8.29726L12.0679 10.5861L7.62901 4.76251L13.8126 8.29726ZM19.901 12.2225L7.62901 19.2375L15.3129 9.1568L19.9009 11.7793C19.9803 11.8247 20.0297 11.9097 20.0297 12.0008C20.0296 12.0922 19.9802 12.1773 19.901 12.2225Z" fill="#162A41"/>
</svg>
