<svg width="59" height="56" viewBox="0 0 59 56" fill="none" xmlns="http://www.w3.org/2000/svg">
<path d="M15.1586 35.6594L3.09811 41.0713C0.531425 42.238 0.531425 44.1484 3.09811 45.3151L24.6816 55.1589C27.1447 56.2804 31.1989 56.2804 33.6621 55.1589L55.2455 45.3151C57.8122 44.1484 57.8122 42.238 55.2455 41.0713L43.5875 35.4611M55.2339 10.7407L33.4521 0.80938C31.091 -0.269793 27.2264 -0.269793 24.8653 0.80938L3.09811 10.7407C0.531425 11.9074 0.531425 13.8163 3.09811 14.983L24.6816 24.8268C27.1447 25.9498 31.1989 25.9498 33.6621 24.8268L55.2455 14.983C57.8005 13.8163 57.8005 11.9059 55.2339 10.7407Z" stroke="#F8F8FB" stroke-width="2" stroke-linecap="round" stroke-linejoin="round"/>
</svg>
